<svg viewBox="0 0 47 37" fill="none" xmlns="http://www.w3.org/2000/svg">
<style>
  @keyframes gradientAnimation {
    0% {
      stop-color: #43EFB9;
    }
    50% {
      stop-color: #4F49FF;
    }
    100% {
      stop-color: #43EFB9;
    }
  }
  @keyframes gradientPosition {
    0% {
      x1: "0%";
      y1: "100%";
      x2: "100%";
      y2: "0%";
    }
    100% {
      x1: "100%";
      y1: "0%";
      x2: "200%";
      y2: "-100%";
    }
  }
  #paint0_linear_9_176 {
    animation: gradientPosition 3s linear infinite;
  }
  #paint0_linear_9_176 stop:first-child {
    animation: gradientAnimation 3s ease infinite;
  }
  #paint0_linear_9_176 stop:last-child {
    animation: gradientAnimation 3s ease infinite reverse;
  }
</style>
<path id="Union" d="M41.1525 30.9095L41.1454 31.1987C41.0011 34.0723 38.7177 36.3766 35.8702 36.5223L35.5836 36.5294H28.901V33.1575H35.5836C36.8139 33.1575 37.8112 32.151 37.8112 30.9095V24.1656H41.1525V30.9095ZM44.8293 2.24851L44.9153 2.25071C45.7976 2.2961 46.4993 3.03222 46.4995 3.93394L46.5 14.0498L46.4978 14.1365C46.4545 14.9983 45.7694 15.6901 44.9153 15.7341L44.8293 15.7363C43.9355 15.7362 43.2051 15.0273 43.1603 14.1365L43.1581 14.0498V8.00453L24.2528 27.0837C23.6208 27.7214 22.6077 27.7414 21.9519 27.1435L21.8899 27.0837C21.7564 26.949 21.6529 26.7965 21.575 26.6369C21.4192 26.4307 21.3072 26.1864 21.259 25.918L21.2411 25.7896L21.2389 25.7621L21.2329 25.6469C21.2324 25.6371 21.2324 25.627 21.2324 25.6172V15.9619L3.35165 34.0065C2.7196 34.6443 1.70702 34.6643 1.05123 34.0663L0.989232 34.0065C0.336983 33.3481 0.336862 32.2808 0.989232 31.6224L21.7577 10.6636L21.7795 10.6427L21.8643 10.5659L21.8839 10.5489L22.0106 10.4539C22.6601 10.015 23.5464 10.0847 24.1201 10.6636L24.199 10.7486C24.5527 11.1581 24.6754 11.6977 24.5731 12.197C24.5732 12.2007 24.5737 12.2046 24.5737 12.2085V21.9906L40.7957 5.62046H34.8048C33.911 5.6202 33.1811 4.91118 33.1364 4.02065L33.1342 3.93394C33.1344 3.00313 33.8825 2.24823 34.8048 2.24796L44.8293 2.24851ZM17.7633 3.37195H10.5237C9.29354 3.372 8.29619 4.37843 8.29619 5.61991V12.9258H4.95487V5.61991C4.95487 2.61316 7.29477 0.157717 10.2371 0.00713465L10.5237 0H17.7633V3.37195Z" fill="url(#paint0_linear_9_176)"/>
<defs>
<linearGradient id="paint0_linear_9_176" x1="0%" y1="100%" x2="100%" y2="0%" gradientUnits="userSpaceOnUse">
<stop offset="0.139423" stop-color="#43EFB9"/>
<stop offset="1" stop-color="#4F49FF"/>
</linearGradient>
</defs>
</svg>
